<?xml version="1.0" encoding="utf-8"?>
<!-- Generator: Adobe Illustrator 24.0.3, SVG Export Plug-In . SVG Version: 6.00 Build 0)  -->
<svg version="1.1" id="Layer_1" xmlns="http://www.w3.org/2000/svg" xmlns:xlink="http://www.w3.org/1999/xlink" x="0px" y="0px"
	 viewBox="0 0 410.5 136.8" style="enable-background:new 0 0 410.5 136.8;" xml:space="preserve">
<style type="text/css">
	.st0{fill:#E62137;}
	.st1{fill:#FFFFFF;}
</style>
<title>Asset 3Unkillable Full White</title>
<g id="Layer_2_1_">
	<g id="Layer_1-2">
		<path class="st0" d="M410.5,136.8l-11.7-46.2V40.2c0-22.2-17-40.2-37.9-40.2c0,0,0,0,0,0h-323C17,0,0,18,0,40.2c0,0,0,0,0,0v42.6
			C0,105,17,123,37.9,123c0,0,0,0,0,0h324.4l-0.1,0.1L410.5,136.8z"/>
		<g>
			<path class="st1" d="M43.8,68.8v23.9H32V31.5h19.4c3.7-0.1,7.5,0.4,11.1,1.3c2.7,0.7,5.3,1.9,7.6,3.6c1.9,1.5,3.4,3.4,4.3,5.6
				c1.7,4.1,1.8,8.8,0.4,13c-0.6,1.8-1.5,3.5-2.7,5c-1.2,1.5-2.7,2.9-4.4,3.9c-1.8,1.2-3.8,2.1-5.9,2.7c1.5,0.9,2.9,2.1,3.9,3.5
				l15.9,22.6H70.9c-0.9,0-1.8-0.2-2.6-0.6c-0.7-0.4-1.4-1-1.8-1.7L53.2,70.8c-0.4-0.7-1-1.2-1.6-1.6c-0.8-0.3-1.7-0.5-2.7-0.4H43.8
				z M43.8,60.6h7.4c2,0,3.9-0.2,5.8-0.8c1.5-0.4,2.9-1.2,4.1-2.2c1.1-0.9,1.9-2.1,2.4-3.4c0.5-1.4,0.8-2.8,0.8-4.3
				c0.1-2.8-1-5.4-3.2-7.1c-2.1-1.7-5.4-2.5-9.7-2.5h-7.5V60.6z"/>
			<path class="st1" d="M129,31.5v9h-28.1v17h22.1v8.8h-22.1v17.3H129v9.1H89V31.5H129z"/>
			<path class="st1" d="M195,92.7h-9.1c-0.9,0-1.8-0.2-2.5-0.7c-0.6-0.5-1.1-1.1-1.4-1.8l-4.7-12.5h-26.3l-4.7,12.5
				c-0.3,0.7-0.8,1.3-1.4,1.8c-0.7,0.6-1.6,0.8-2.5,0.8h-9.2L158,31.5h12.1L195,92.7z M154,69.6h20.2l-7.7-20.4
				c-0.4-0.9-0.7-2-1.2-3.2s-0.8-2.6-1.2-4c-0.4,1.4-0.8,2.8-1.2,4s-0.8,2.3-1.2,3.2L154,69.6z"/>
			<path class="st1" d="M213.3,83.3h25.4v9.4h-37.2V31.5h11.8V83.3z"/>
			<path class="st1" d="M260.1,92.7h-11.8V31.5h11.8V92.7z"/>
			<path class="st1" d="M319,31.5v9.3h-19v51.9h-11.8V40.9H269v-9.4H319z"/>
			<path class="st1" d="M354.7,68.9v23.8h-11.8V68.9l-23.1-37.4h10.4c0.9-0.1,1.7,0.2,2.4,0.7c0.6,0.5,1.1,1.1,1.5,1.8l11.6,20.5
				c0.7,1.2,1.3,2.4,1.8,3.5s0.9,2.2,1.4,3.2c0.4-1.1,0.8-2.1,1.3-3.2s1.1-2.2,1.7-3.4L363.5,34c0.4-0.7,0.9-1.3,1.4-1.7
				c0.7-0.6,1.6-0.8,2.5-0.8h10.4L354.7,68.9z"/>
		</g>
	</g>
</g>
</svg>
