<svg xmlns="http://www.w3.org/2000/svg" viewBox="0 0 594.77 136.5"><defs><style>.cls-1{fill:#3dbeb3;}.cls-2{fill:#fff;}</style></defs><title>Asset 2Unkillable Full White</title><g id="Layer_2" data-name="Layer 2"><g id="Layer_1-2" data-name="Layer 1"><path class="cls-1" d="M554.58,0H53.05A40.19,40.19,0,0,0,12.86,40.19v48.3L0,136.5,50.43,123H554.58a40.19,40.19,0,0,0,40.19-40.19V40.19A40.19,40.19,0,0,0,554.58,0Z"/><path class="cls-2" d="M89.46,27.53v10H59.34V56.42H83.07v9.72H59.34V85.36H89.46v10.1H46.61V27.53Z"/><path class="cls-2" d="M116.7,60.51l-21.65-33h12.58a3.94,3.94,0,0,1,1.91.35,3.2,3.2,0,0,1,1,1.15L126.05,54c.16-.4.33-.8.52-1.19a11.93,11.93,0,0,1,.65-1.2l14.14-22.31A3.07,3.07,0,0,1,144,27.53h12.11L134.27,60l22.5,35.47H144.13a3.08,3.08,0,0,1-2-.66,6.12,6.12,0,0,1-1.29-1.5l-15.74-26a9.36,9.36,0,0,1-.42,1.06c-.16.33-.32.63-.47.92l-15.08,24a7.29,7.29,0,0,1-1.27,1.47,2.66,2.66,0,0,1-1.88.69H94.1Z"/><path class="cls-2" d="M177.25,71.54V95.46H164.61V27.53h22.12a38.55,38.55,0,0,1,11.79,1.6,22.58,22.58,0,0,1,8.23,4.46,17.46,17.46,0,0,1,4.79,6.86,24,24,0,0,1,1.55,8.73,24,24,0,0,1-1.65,9,18.65,18.65,0,0,1-4.93,7.08,23,23,0,0,1-8.22,4.6,36.47,36.47,0,0,1-11.56,1.64Zm0-9.86h9.48a19.11,19.11,0,0,0,6.07-.87,11.37,11.37,0,0,0,4.27-2.49,10.1,10.1,0,0,0,2.53-3.94,15,15,0,0,0,.85-5.2,13.6,13.6,0,0,0-.85-4.93,9.63,9.63,0,0,0-2.53-3.75,11.33,11.33,0,0,0-4.27-2.38,20.08,20.08,0,0,0-6.07-.82h-9.48Z"/><path class="cls-2" d="M235.55,85h27.19V95.46H222.9V27.53h12.65Z"/><path class="cls-2" d="M332.88,61.49a37.61,37.61,0,0,1-2.5,13.83,32.67,32.67,0,0,1-7,11,31.7,31.7,0,0,1-10.84,7.26,39.32,39.32,0,0,1-28.12,0,32,32,0,0,1-10.9-7.26,32.57,32.57,0,0,1-7-11A37.61,37.61,0,0,1,264,61.49a37.61,37.61,0,0,1,2.49-13.83,32.53,32.53,0,0,1,7-11,31.83,31.83,0,0,1,10.9-7.27,36.91,36.91,0,0,1,14.07-2.6,36.22,36.22,0,0,1,14.05,2.63,31.76,31.76,0,0,1,17.84,18.25A37.61,37.61,0,0,1,332.88,61.49Zm-13,0a31.57,31.57,0,0,0-1.48-10,21.25,21.25,0,0,0-4.25-7.54,18.24,18.24,0,0,0-6.75-4.74,25.27,25.27,0,0,0-17.91,0,18.39,18.39,0,0,0-6.79,4.74,21.19,21.19,0,0,0-4.3,7.54,31.27,31.27,0,0,0-1.51,10,31.22,31.22,0,0,0,1.51,10,20.8,20.8,0,0,0,4.3,7.51,18.48,18.48,0,0,0,6.79,4.73,25.27,25.27,0,0,0,17.91,0A18.33,18.33,0,0,0,314.18,79a20.86,20.86,0,0,0,4.25-7.51A31.52,31.52,0,0,0,319.91,61.49Z"/><path class="cls-2" d="M355.89,68.91V95.46H343.25V27.53H364A43.42,43.42,0,0,1,375.87,29,22.75,22.75,0,0,1,384,33a15.44,15.44,0,0,1,4.65,6.18,20.49,20.49,0,0,1,1.48,7.91,20.27,20.27,0,0,1-1,6.48,18.62,18.62,0,0,1-2.91,5.55,19.84,19.84,0,0,1-4.69,4.37,24.79,24.79,0,0,1-6.37,3,12.53,12.53,0,0,1,4.13,3.9l17,25.09H384.92a5.59,5.59,0,0,1-2.79-.66,5.84,5.84,0,0,1-2-1.88L365.89,71.17a4.93,4.93,0,0,0-1.76-1.74,6.22,6.22,0,0,0-2.84-.52Zm0-9.06h7.89A19.64,19.64,0,0,0,370,59a12,12,0,0,0,4.37-2.47,9.89,9.89,0,0,0,2.56-3.73,13,13,0,0,0,.85-4.75,9.66,9.66,0,0,0-3.41-7.94Q371,37.3,364,37.3h-8.08Z"/><path class="cls-2" d="M418.6,95.46H405.91V27.53H418.6Z"/><path class="cls-2" d="M441.9,27.6a3.49,3.49,0,0,1,1,.28,3.72,3.72,0,0,1,.87.61,11,11,0,0,1,.94,1.06L480.37,75c-.13-1.09-.21-2.17-.26-3.21s-.07-2-.07-2.94V27.53h11.13V95.46h-6.52a5.87,5.87,0,0,1-2.5-.47,5.66,5.66,0,0,1-1.92-1.69L444.72,48.05c.09,1,.16,2,.21,3s.07,1.89.07,2.7V95.46H433.87V27.53h6.62A13.48,13.48,0,0,1,441.9,27.6Z"/><path class="cls-2" d="M536.08,86.15a29.24,29.24,0,0,0,13.48-2.91V70.89h-8.5a2.67,2.67,0,0,1-1.93-.68,2.24,2.24,0,0,1-.7-1.67V61.4H561V88.88a37.24,37.24,0,0,1-5.38,3.26,33.43,33.43,0,0,1-6,2.28,46.9,46.9,0,0,1-6.79,1.34,63.38,63.38,0,0,1-7.8.44,35.3,35.3,0,0,1-13.67-2.58A32,32,0,0,1,503.5,75.44a37.11,37.11,0,0,1-2.56-13.95,38.11,38.11,0,0,1,2.5-14,30.86,30.86,0,0,1,18.17-18.14,40.42,40.42,0,0,1,14.65-2.53,38.06,38.06,0,0,1,14.4,2.47A33.1,33.1,0,0,1,561,35.66l-3.66,5.73a3.29,3.29,0,0,1-2.87,1.74,4.19,4.19,0,0,1-2.29-.76c-1-.59-2-1.18-3.09-1.78A20.89,20.89,0,0,0,545.59,39,28,28,0,0,0,541.32,38a31.81,31.81,0,0,0-5.48-.42,23.44,23.44,0,0,0-9.09,1.69,19.11,19.11,0,0,0-6.92,4.84,21.62,21.62,0,0,0-4.42,7.56,29.69,29.69,0,0,0-1.55,9.86A31,31,0,0,0,515.5,72a21.9,21.9,0,0,0,4.61,7.72,19.64,19.64,0,0,0,7,4.81A23.28,23.28,0,0,0,536.08,86.15Z"/></g></g></svg>